<?xml version="1.0" standalone="no"?>
<!DOCTYPE svg PUBLIC "-//W3C//DTD SVG 20010904//EN"
 "http://www.w3.org/TR/2001/REC-SVG-20010904/DTD/svg10.dtd">
<svg version="1.0" xmlns="http://www.w3.org/2000/svg"
 width="250.000000pt" height="100.000000pt" viewBox="0 0 250.000000 100.000000"
 preserveAspectRatio="xMidYMid meet">
<metadata>
Created by potrace 1.16, written by Peter Selinger 2001-2019
</metadata>
<g transform="translate(0.000000,100.000000) scale(0.039809,-0.031250)"
fill="#000000" stroke="none">
<path d="M2995 3099 c-280 -47 -539 -211 -697 -443 -130 -190 -204 -468 -178
-672 32 -251 122 -449 280 -618 150 -159 339 -264 555 -306 337 -67 685 41
928 286 94 95 146 170 202 289 100 210 127 456 72 676 -28 116 -84 246 -143
334 -52 79 -172 204 -252 263 -126 93 -311 170 -461 192 -79 11 -236 11 -306
-1z m390 -81 c519 -128 836 -656 710 -1181 -54 -221 -215 -447 -412 -577 -340
-223 -792 -208 -1114 36 -83 63 -204 196 -251 277 -189 322 -182 719 20 1032
58 90 179 215 264 271 82 55 211 115 298 139 135 38 340 39 485 3z"/>
<path d="M2790 2648 c0 -6 7 -20 17 -30 15 -17 15 -19 0 -36 -10 -10 -17 -22
-17 -25 0 -4 45 -7 100 -7 114 0 109 6 85 -95 -21 -87 -22 -85 38 -85 l52 0
20 88 20 87 54 3 c30 2 58 -1 63 -6 8 -8 71 -294 85 -384 l6 -38 -153 0 -152
0 7 33 c4 17 9 42 12 55 5 21 2 22 -50 22 l-56 0 -12 -54 c-11 -51 -14 -55
-43 -58 -29 -3 -31 -5 -34 -51 -3 -42 0 -49 17 -54 12 -3 21 -8 21 -11 0 -3
-11 -48 -24 -101 -13 -53 -32 -131 -41 -175 -32 -143 -32 -144 -68 -148 -29
-3 -32 -6 -35 -40 l-3 -38 125 0 126 0 0 40 c0 37 -2 40 -28 40 -16 0 -31 2
-34 5 -3 3 5 47 17 98 13 51 35 145 50 210 l27 117 178 0 178 0 11 -45 11 -45
56 0 c48 0 55 2 50 18 -21 71 -21 72 18 72 l36 0 0 54 0 55 -47 3 c-45 3 -48
5 -55 38 -55 262 -78 375 -78 382 0 4 50 8 110 8 61 0 110 4 110 8 0 5 -6 17
-14 28 -13 16 -12 21 1 36 8 9 12 22 8 27 -9 16 -765 15 -765 -1z"/>
<path d="M2590 2331 c0 -5 7 -14 15 -21 14 -12 14 -15 0 -30 -18 -20 -11 -30
22 -30 l23 0 0 -175 0 -175 -23 0 c-33 0 -40 -10 -20 -32 15 -17 15 -19 -2
-38 -18 -20 -17 -20 88 -20 l105 0 12 35 c14 44 7 55 -36 55 l-34 0 0 175 0
175 260 0 260 0 0 23 c0 12 -3 32 -6 45 l-6 22 -329 0 c-182 0 -329 -4 -329
-9z"/>
<path d="M3410 2321 c0 -11 4 -31 10 -45 9 -25 13 -26 93 -26 120 0 122 -3
122 -175 0 -191 33 -175 -346 -175 l-308 0 -10 -37 c-6 -21 -11 -41 -11 -45 0
-5 145 -8 323 -8 295 0 325 2 357 19 69 37 75 54 78 234 2 153 1 164 -20 201
-35 60 -75 76 -190 76 -90 0 -98 -2 -98 -19z"/>
<path d="M3390 1772 c0 -4 9 -47 19 -94 10 -48 16 -89 13 -92 -3 -3 -16 -6
-29 -6 -20 0 -23 -5 -23 -40 l0 -40 126 0 125 0 -3 38 c-3 35 -5 37 -40 40
-41 4 -39 -1 -64 120 l-17 82 -54 0 c-29 0 -53 -4 -53 -8z"/>
<path d="M1215 452 c-76 -231 -82 -246 -110 -258 -28 -12 -25 -13 45 -12 41 0
64 3 50 5 -39 7 -41 14 -23 78 23 85 25 86 107 83 l70 -3 20 -68 c10 -37 16
-70 13 -73 -3 -4 -21 -10 -39 -15 -19 -4 76 -7 228 -6 l261 2 40 27 c86 57
118 128 111 248 -5 93 -37 156 -100 198 -39 26 -49 27 -190 32 -81 3 -148 2
-148 -2 0 -4 10 -8 23 -10 l22 -3 3 -237 2 -238 -23 -5 c-13 -4 -41 -5 -62 -3
l-39 3 -48 140 c-26 77 -64 188 -84 248 -20 59 -39 109 -43 111 -3 2 -42 -107
-86 -242z m605 206 c68 -34 94 -95 94 -213 0 -103 -13 -152 -56 -201 -35 -39
-89 -57 -147 -48 l-41 7 0 232 c0 127 3 235 7 238 15 16 101 6 143 -15z m-506
-191 c37 -109 38 -107 -39 -107 -36 0 -65 1 -65 3 0 2 7 28 16 58 25 89 47
140 54 132 4 -4 19 -43 34 -86z"/>
<path d="M2213 688 c-2 -5 5 -8 15 -8 40 0 42 -18 40 -256 l-3 -229 -30 -6
c-19 -4 -5 -7 40 -7 39 0 61 3 50 5 -44 11 -45 16 -45 227 1 133 4 195 10 185
10 -18 61 -162 111 -318 17 -51 34 -89 38 -85 4 5 20 54 36 109 15 55 43 147
61 205 l33 105 -2 -210 -2 -210 -30 -6 c-16 -4 15 -7 70 -7 55 0 87 3 70 7
l-30 6 0 240 0 240 28 3 c53 6 26 22 -38 22 l-64 0 -16 -57 c-9 -32 -25 -85
-35 -118 -10 -33 -26 -88 -36 -123 -9 -34 -20 -65 -24 -67 -4 -2 -29 60 -55
138 -78 230 -72 219 -134 221 -29 0 -55 -2 -58 -6z"/>
<path d="M2760 688 c0 -4 10 -8 23 -10 l22 -3 0 -240 0 -239 -25 -7 c-14 -4
50 -7 142 -8 91 -1 173 -4 182 -7 14 -5 16 4 15 67 l-1 74 -11 -42 c-18 -63
-30 -70 -134 -78 l-93 -7 0 132 0 133 48 -7 c54 -7 82 -33 82 -77 0 -16 4 -29
9 -29 4 0 8 50 8 110 0 61 -4 110 -8 110 -5 0 -9 -13 -9 -28 0 -46 -21 -64
-78 -70 l-52 -5 0 112 0 111 76 0 c70 0 78 -2 105 -29 16 -16 29 -39 29 -50 0
-11 5 -23 12 -27 8 -5 9 6 5 41 -4 26 -7 56 -7 66 0 17 -11 18 -170 16 -93 -1
-170 -5 -170 -9z"/>
<path d="M3180 688 c0 -5 11 -8 25 -8 l25 0 -2 -242 -3 -242 -25 -7 c-14 -4
50 -7 142 -8 91 -1 173 -4 182 -7 14 -5 16 4 15 67 l0 74 -15 -47 c-8 -26 -23
-52 -32 -57 -10 -5 -56 -11 -103 -13 l-84 -3 0 240 0 239 25 7 c14 4 23 8 20
9 -18 6 -170 4 -170 -2z"/>
<path d="M3600 688 c0 -5 9 -8 20 -8 20 0 20 -5 18 -242 l-3 -242 -25 -7 c-14
-4 14 -7 65 -7 72 0 84 2 62 10 l-27 10 2 236 3 236 25 7 c32 9 30 9 -63 12
-42 1 -77 -1 -77 -5z"/>
<path d="M3964 681 c-78 -36 -124 -126 -124 -240 0 -172 107 -286 249 -267 89
12 150 77 177 189 14 55 15 77 5 124 -26 135 -94 205 -204 210 -46 3 -73 -1
-103 -16z m165 -15 c11 -10 30 -41 42 -69 20 -44 23 -69 24 -167 0 -103 -3
-120 -25 -165 -44 -88 -120 -107 -189 -49 -47 39 -66 103 -65 219 1 123 15
178 60 223 32 32 38 34 84 30 28 -3 59 -13 69 -22z"/>
<path d="M4886 467 c-43 -129 -84 -244 -92 -256 -18 -24 -49 -28 -58 -6 -8 22
-26 18 -26 -5 0 -11 -4 -20 -9 -20 -19 0 -34 34 -47 111 -17 94 -34 122 -89
145 l-40 16 50 16 c98 33 126 134 54 195 -33 26 -36 27 -159 26 -69 -1 -114
-4 -100 -8 l25 -7 0 -239 0 -239 -25 -7 c-14 -4 17 -7 70 -7 53 0 82 3 65 7
l-30 6 -3 128 -3 129 23 -7 c65 -18 88 -52 88 -132 0 -50 29 -112 59 -128 21
-10 52 -12 141 -6 63 5 100 9 83 10 -39 1 -40 10 -15 96 l18 60 75 0 74 0 24
-68 c13 -37 21 -71 17 -74 -3 -3 -23 -9 -43 -13 -25 -5 2 -8 77 -7 63 0 103 2
88 4 -14 2 -31 10 -36 16 -5 7 -44 116 -87 242 -42 127 -81 236 -85 243 -4 8
-39 -84 -84 -221z m-317 187 c15 -19 21 -41 21 -80 0 -66 -27 -102 -82 -111
l-38 -6 0 105 c0 58 3 108 7 111 3 4 21 7 39 7 23 0 38 -8 53 -26z m410 -185
c17 -53 31 -99 31 -103 0 -3 -31 -6 -69 -6 l-70 0 20 63 c31 96 51 149 54 145
2 -2 17 -46 34 -99z"/>
</g>
</svg>
